<svg xmlns="http://www.w3.org/2000/svg" fill="none" viewBox="0 0 24 24"><path fill="#fff" d="M1.94 16.64h20.14a.89.89 0 0 1 .92.91.9.9 0 0 1-.27.67.9.9 0 0 1-.66.27H1.92a.87.87 0 0 1-.66-.27.92.92 0 0 1-.26-.67c0-.26.09-.48.27-.65a.9.9 0 0 1 .67-.26Zm2.37-6.8-.67 1.19a.67.67 0 0 1-.4.32.64.64 0 0 1-.52-.08.71.71 0 0 1-.33-.42.63.63 0 0 1 .06-.52l.69-1.2H1.76a.64.64 0 0 1-.48-.2.69.69 0 0 1-.2-.49c0-.19.07-.35.21-.48a.7.7 0 0 1 .5-.2h1.35L2.45 6.6a.66.66 0 0 1-.07-.52.68.68 0 0 1 .32-.42c.16-.1.34-.12.52-.07.18.06.33.17.42.33l.67 1.16.67-1.18c.1-.16.24-.27.41-.32a.64.64 0 0 1 .52.08c.16.1.27.23.33.42.05.18.03.36-.07.52L5.5 7.76h1.37c.19 0 .35.07.48.2s.2.3.2.48c0 .2-.07.35-.2.5a.66.66 0 0 1-.48.2H5.5l.68 1.19a.68.68 0 0 1-.25.94.63.63 0 0 1-.52.07.71.71 0 0 1-.42-.33l-.67-1.17Zm7.69 0L11.35 11a.68.68 0 0 1-.43.32.67.67 0 0 1-.53-.07.68.68 0 0 1-.32-.43.67.67 0 0 1 .07-.54l.69-1.19H9.45a.64.64 0 0 1-.48-.2.69.69 0 0 1-.2-.5c0-.18.07-.34.21-.48a.7.7 0 0 1 .49-.2h1.36l-.7-1.17a.66.66 0 0 1-.06-.52.68.68 0 0 1 .32-.42.6.6 0 0 1 .52-.06c.18.05.32.16.42.33L12 7.03l.67-1.17c.1-.17.23-.27.41-.32a.64.64 0 0 1 .52.07c.16.1.27.24.33.42.05.18.03.36-.07.52l-.69 1.18h1.38c.19 0 .35.06.48.2.13.13.2.29.2.48 0 .18-.07.35-.2.49-.13.13-.3.2-.48.2h-1.38l.7 1.2c.1.16.13.34.07.53a.71.71 0 0 1-.33.43.65.65 0 0 1-.53.06.71.71 0 0 1-.43-.33L12 9.84Zm7.62 0L18.97 11a.68.68 0 0 1-.43.32.67.67 0 0 1-.53-.07.68.68 0 0 1-.33-.43.67.67 0 0 1 .08-.54l.69-1.19h-1.38a.64.64 0 0 1-.48-.2.69.69 0 0 1-.2-.5.7.7 0 0 1 .2-.48c.15-.13.31-.2.5-.2h1.36l-.7-1.17a.66.66 0 0 1-.07-.52.68.68 0 0 1 .33-.42.6.6 0 0 1 .52-.06c.18.05.32.16.42.33l.67 1.15.67-1.17c.1-.17.23-.27.41-.32a.64.64 0 0 1 .51.07c.17.1.28.24.33.42a.6.6 0 0 1-.06.52l-.69 1.18h1.38c.19 0 .35.06.48.2.13.13.2.29.2.48 0 .18-.07.35-.2.49-.13.13-.3.2-.48.2h-1.38l.7 1.2c.1.16.13.34.07.53a.71.71 0 0 1-.33.43.65.65 0 0 1-.53.06.71.71 0 0 1-.43-.33l-.65-1.15Z"/></svg>