<svg xmlns="http://www.w3.org/2000/svg" fill="none" viewBox="0 0 35 16"><g clip-path="url(#a)"><path fill="#1434CB" d="M13.08 2.99 8.65 13.57h-2.9L3.58 5.12c-.13-.51-.24-.7-.65-.93-.65-.35-1.74-.69-2.7-.9L.3 3h4.66c.59 0 1.12.4 1.26 1.08l1.15 6.12L10.22 3h2.87Zm3.91 0-2.26 10.58H12l2.27-10.58H17Zm7.43 7.12c.01-2.79-3.86-2.94-3.84-4.2.01-.37.38-.77 1.17-.88a5.15 5.15 0 0 1 2.7.48l.47-2.25a7.38 7.38 0 0 0-2.56-.47c-2.7 0-4.6 1.44-4.62 3.5-.02 1.52 1.36 2.37 2.4 2.88 1.06.52 1.42.85 1.42 1.32-.01.7-.86 1.02-1.64 1.03-1.38.02-2.18-.37-2.81-.67l-.5 2.32c.64.3 1.82.55 3.04.56 2.88 0 4.76-1.42 4.77-3.62Zm7.14 3.46h2.53L31.9 2.99h-2.34c-.53 0-.97.3-1.17.77l-4.1 9.8h2.87l.57-1.57h3.51l.33 1.58Zm-3.05-3.75 1.44-3.97.83 3.97H28.5Z"/></g><defs><clipPath id="a"><path fill="#fff" d="M.07.02h34v15.96h-34z"/></clipPath></defs></svg>