<svg xmlns="http://www.w3.org/2000/svg" fill="none" viewBox="0 0 48 48"><rect width="48" height="48" fill="#fff" fill-opacity=".1" rx="24"/><path fill="#fff" d="M15.8 18.7c0-.44.36-.8.8-.8h14.8c.45 0 .8.35.8.8a.8.8 0 0 1-.8.8H16.6a.79.79 0 0 1-.8-.8Zm1.6-2.4c0-.44.36-.8.8-.8h11.6c.45 0 .8.35.8.8a.8.8 0 0 1-.8.8H18.2a.79.79 0 0 1-.8-.8Zm14.71 5.6H15.88l.71 9h14.8l.72-9Zm-17.19 9.08-.64-9c-.09-.91.6-1.68 1.52-1.68h16.4c.91 0 1.6.76 1.52 1.67l-.65 9.01a1.7 1.7 0 0 1-1.67 1.52H16.6a1.7 1.7 0 0 1-1.68-1.52Z"/></svg>