<svg xmlns="http://www.w3.org/2000/svg" fill="none" viewBox="0 0 24 24"><g clip-path="url(#american)"><path fill="#fff" d="M0 0h24v24H0V0Z"/><path fill="#006FCF" d="M0 0v24h24v-3.8h-3.31l-1.23-1.42-1.27 1.43H8.8v-7.63H5.67L9.56 3.8h3.78l.9 2v-2h4.7l.78 2.09.77-2.09H24V0H0Zm21.29 5.04-1.23 3.25-.33.88-.34-.88-1.24-3.25h-2.71v6.4h1.63V6.43l.31.84 1.56 4.17h1.56l1.56-4.17.3-.83v5H24v-6.4h-2.71Zm-10.85 0-2.83 6.4h1.85l.5-1.23h3.1l.5 1.23h1.88l-2.82-6.4h-2.18Zm.75 2.17.32-.8.32.8.67 1.61h-1.97l.66-1.61Zm10.23 5.38-1.93 2.07-1.92-2.07H10.1v6.38h5.34v-1.39h-3.71v-1.1h3.64V15.1h-3.64v-1.12h3.71v-1.39l2.98 3.2-2.98 3.18h2.06l1.95-2.08 1.93 2.08h2.12l-2.99-3.2 3-3.18h-2.1Zm.77 3.17L24 17.6v-3.66l-1.8 1.82Z"/></g><defs><clipPath id="american"><path fill="#fff" d="M0 0h24v24H0z"/></clipPath></defs></svg>