<svg xmlns="http://www.w3.org/2000/svg" fill="none" viewBox="0 0 59 24"><g clip-path="url(#apple)"><path fill="#fff" d="M10.64 3.08c-.68.81-1.77 1.45-2.87 1.36-.13-1.1.4-2.26 1.03-2.97A4.28 4.28 0 0 1 11.64 0a4.32 4.32 0 0 1-1 3.08Zm.99 1.57c-1.58-.09-2.93.9-3.69.9-.76 0-1.9-.85-3.16-.83A4.67 4.67 0 0 0 .81 7.13c-1.7 2.94-.44 7.28 1.2 9.67.82 1.18 1.78 2.48 3.06 2.44 1.2-.05 1.68-.79 3.14-.79 1.46 0 1.88.79 3.16.76 1.32-.02 2.15-1.18 2.96-2.36.92-1.35 1.3-2.65 1.32-2.72-.03-.02-2.55-1-2.58-3.9-.02-2.44 2-3.6 2.09-3.67a4.5 4.5 0 0 0-3.53-1.9Zm9.13-3.3V19.1h2.76v-6.07h3.8c3.49 0 5.93-2.38 5.93-5.84s-2.4-5.83-5.83-5.83h-6.66Zm2.76 2.32h3.17c2.39 0 3.75 1.28 3.75 3.52s-1.36 3.53-3.76 3.53h-3.16V3.67Zm14.76 15.55c1.73 0 3.34-.87 4.06-2.26h.06v2.13h2.55v-8.83c0-2.56-2.05-4.2-5.2-4.2-2.92 0-5.09 1.66-5.16 3.96h2.48c.2-1.09 1.21-1.8 2.6-1.8 1.68 0 2.63.78 2.63 2.22v.98l-3.44.2c-3.2.2-4.92 1.5-4.92 3.78 0 2.3 1.78 3.82 4.34 3.82Zm.74-2.1c-1.47 0-2.4-.7-2.4-1.79 0-1.11.9-1.76 2.62-1.86l3.06-.2v1c0 1.67-1.41 2.85-3.28 2.85m9.33 6.8c2.68 0 3.95-1.03 5.05-4.14l4.83-13.56h-2.8L52.2 16.7h-.05L48.9 6.22h-2.88l4.66 12.91-.25.79c-.42 1.33-1.1 1.84-2.32 1.84a8.6 8.6 0 0 1-.8-.04v2.12c.15.05.83.07 1.04.07"/></g><defs><clipPath id="apple"><path fill="#fff" d="M0 0h58.23v24H0z"/></clipPath></defs></svg>