<svg xmlns="http://www.w3.org/2000/svg" fill="none" viewBox="0 0 24 24"><path fill="#fff" d="M3.98 20c-.52 0-.96-.19-1.34-.56a1.82 1.82 0 0 1-.55-1.34V5.9c0-.51.18-.96.55-1.34.38-.37.82-.56 1.34-.56h16.03c.52 0 .97.19 1.34.56.38.38.56.83.56 1.35v12.2c0 .51-.18.96-.56 1.33-.37.37-.82.56-1.34.56H3.98ZM20.01 8.2 12.5 13l-.25.12a.78.78 0 0 1-.27.04.78.78 0 0 1-.26-.04 1.73 1.73 0 0 1-.26-.12L3.98 8.2v8.9a1 1 0 0 0 1 1h14.03a1 1 0 0 0 1-1V8.2Zm-8.02 2.92 7.92-5.21H4.11l7.88 5.21Zm-8-2.7V6.58v.03-.71.7-.04V8.4Z"/></svg>