<svg xmlns="http://www.w3.org/2000/svg" fill="none" viewBox="0 0 67 16"><g clip-path="url(#a)"><path fill="#2790C3" d="M12.7 4.06c.2-1.25 0-2.1-.67-2.86C11.3.36 9.96 0 8.24 0H3.28a.71.71 0 0 0-.7.6L.5 13.7c-.04.26.16.5.43.5h3.06l-.2 1.34c-.04.22.13.43.36.43h2.59c.3 0 .56-.22.61-.53l.03-.13.48-3.09.03-.17c.05-.3.31-.52.62-.52h.38c2.5 0 4.47-1.02 5.04-3.96.24-1.23.12-2.26-.51-2.98-.2-.22-.43-.4-.71-.54Z" opacity=".68"/><path fill="#18191E" d="M12.7 4.06c.2-1.25 0-2.1-.67-2.86C11.3.36 9.96 0 8.24 0H3.28a.71.71 0 0 0-.7.6L.5 13.7c-.04.26.16.5.43.5h3.06l.77-4.89-.02.15a.7.7 0 0 1 .7-.6H6.9c2.86 0 5.1-1.16 5.76-4.52l.05-.3Z" opacity=".7"/><path fill="#27346A" d="M5.6 4.07a.62.62 0 0 1 .6-.52h3.9a8.12 8.12 0 0 1 1.92.23 4.16 4.16 0 0 1 .69.28c.2-1.25 0-2.1-.68-2.86C11.3.36 9.96 0 8.24 0H3.28a.71.71 0 0 0-.7.6L.5 13.7c-.04.26.16.5.43.5h3.06l.77-4.89.83-5.25Zm45.86-.5h-3.62a.5.5 0 0 0-.5.42l-1.46 9.3a.3.3 0 0 0 .3.34h1.85c.18 0 .32-.12.35-.3l.42-2.63a.5.5 0 0 1 .5-.42h1.14c2.39 0 3.76-1.16 4.12-3.45.17-1 .01-1.79-.46-2.34-.51-.6-1.43-.92-2.64-.92Zm.42 3.4c-.2 1.3-1.2 1.3-2.15 1.3h-.55l.38-2.44a.3.3 0 0 1 .3-.25h.25c.66 0 1.27 0 1.6.37.18.22.24.55.17 1.01Zm-26.26-3.4H22a.5.5 0 0 0-.5.42l-1.46 9.3a.3.3 0 0 0 .3.34h1.73a.5.5 0 0 0 .5-.42l.39-2.5a.5.5 0 0 1 .5-.43h1.14c2.39 0 3.76-1.16 4.12-3.45.17-1 .01-1.79-.46-2.34-.51-.6-1.43-.92-2.64-.92Zm.42 3.4c-.2 1.3-1.2 1.3-2.15 1.3h-.55l.39-2.44a.3.3 0 0 1 .3-.25h.24c.66 0 1.28 0 1.6.37.18.22.24.55.17 1.01Zm10.41-.05h-1.73a.3.3 0 0 0-.3.25l-.08.49-.12-.18c-.38-.54-1.21-.72-2.05-.72a3.99 3.99 0 0 0-3.87 3.49 3.28 3.28 0 0 0 .64 2.66c.53.62 1.29.88 2.19.88 1.54 0 2.4-.99 2.4-.99l-.08.48a.3.3 0 0 0 .3.35h1.56a.5.5 0 0 0 .5-.42l.94-5.94a.3.3 0 0 0-.3-.35Zm-2.42 3.38a1.92 1.92 0 0 1-1.96 1.65c-.5 0-.9-.16-1.16-.47-.26-.3-.35-.73-.27-1.21.15-.99.95-1.67 1.94-1.67.5 0 .9.16 1.16.47.26.31.37.75.3 1.23Zm28.26-3.38h-1.73a.3.3 0 0 0-.3.25l-.08.49-.12-.18c-.38-.54-1.21-.72-2.05-.72a3.99 3.99 0 0 0-3.87 3.49 3.28 3.28 0 0 0 .64 2.66c.53.62 1.29.88 2.19.88 1.54 0 2.4-.99 2.4-.99l-.08.48a.3.3 0 0 0 .3.35h1.56a.5.5 0 0 0 .5-.42l.94-5.94a.3.3 0 0 0-.3-.35Zm-2.42 3.38a1.93 1.93 0 0 1-1.96 1.65c-.5 0-.9-.16-1.16-.47-.26-.3-.35-.73-.27-1.21.15-.99.95-1.67 1.94-1.67.5 0 .9.16 1.16.47.26.31.37.75.3 1.23ZM45.69 6.92h-1.74a.5.5 0 0 0-.42.22l-2.4 3.54-1.03-3.4a.5.5 0 0 0-.48-.36h-1.71a.3.3 0 0 0-.29.4l1.92 5.64-1.8 2.54a.3.3 0 0 0 .24.48h1.75a.5.5 0 0 0 .4-.22l5.8-8.37a.3.3 0 0 0-.24-.47Zm18.64-3.1-1.48 9.46a.3.3 0 0 0 .3.35h1.5a.5.5 0 0 0 .49-.42l1.46-9.3a.3.3 0 0 0-.3-.34h-1.67a.3.3 0 0 0-.3.25Z"/></g><defs><clipPath id="a"><path fill="#fff" d="M.5.02H67v15.96H.5z"/></clipPath></defs></svg>