<svg xmlns="http://www.w3.org/2000/svg" fill="none" viewBox="0 0 48 48"><rect width="48" height="48" fill="#fff" fill-opacity=".1" rx="24"/><path fill="#fff" d="M16.83 18c1.69.03 3.11.63 4.29 1.8 2.36 2.37 4.71 4.75 7.08 7.1a4.12 4.12 0 0 0 5.55.33 4.16 4.16 0 0 0-2.66-7.39 4.06 4.06 0 0 0-2.85 1.2l-1.1 1.1c-.4.4-.98.42-1.35.05-.37-.37-.35-.95.07-1.35.63-.6 1.22-1.28 1.94-1.78a5.99 5.99 0 1 1 6.07 10.27A5.91 5.91 0 0 1 27 28.29c-2.42-2.38-4.8-4.8-7.2-7.2a4.13 4.13 0 0 0-5.34-.5 4.16 4.16 0 0 0-.86 6 4.13 4.13 0 0 0 6.04.45c.42-.38.8-.8 1.2-1.2.41-.4.98-.42 1.35-.05.37.38.35.95-.06 1.36-.42.42-.82.86-1.26 1.25a5.73 5.73 0 0 1-6.02 1.22 5.66 5.66 0 0 1-3.92-4.76 5.95 5.95 0 0 1 5.23-6.82c.23-.03.46-.03.66-.04Z"/></svg>