<svg xmlns="http://www.w3.org/2000/svg" fill="none" viewBox="0 0 52 24"><g clip-path="url(#a)"><path fill="#fff" d="M19.57 4.46 12.9 20.37H8.55L5.26 7.67c-.2-.77-.37-1.06-.97-1.4A17.22 17.22 0 0 0 .23 4.94l.1-.47h7c.89 0 1.7.6 1.9 1.63l1.73 9.2 4.28-10.83h4.33Zm5.88 0-3.4 15.91h-4.12l3.4-15.9h4.12ZM36.6 15.18c.02-4.2-5.8-4.43-5.77-6.3.02-.58.56-1.19 1.75-1.34a7.77 7.77 0 0 1 4.06.71l.72-3.37a11.1 11.1 0 0 0-3.85-.7c-4.07 0-6.93 2.15-6.95 5.25-.03 2.3 2.04 3.57 3.6 4.33 1.6.78 2.14 1.28 2.13 1.98 0 1.07-1.28 1.54-2.46 1.56-2.07.03-3.27-.56-4.22-1l-.75 3.48c.96.44 2.74.82 4.57.84 4.33 0 7.16-2.13 7.17-5.44Zm10.74 5.2h3.81L47.84 4.45h-3.52c-.79 0-1.45.46-1.75 1.17L36.4 20.37h4.32l.86-2.37h5.28l.5 2.37Zm-4.59-5.64 2.17-5.98 1.24 5.98h-3.41Z"/></g><defs><clipPath id="a"><path fill="#fff" d="M0 0h51.13v24H0z"/></clipPath></defs></svg>