<svg xmlns="http://www.w3.org/2000/svg" fill="none" viewBox="0 0 48 48"><rect width="48" height="48" fill="#fff" fill-opacity=".1" rx="24"/><g fill="#fff" clip-path="url(#blackouts)"><path d="M19.37 15.35c.48 0 .76.2.96.54l4.2 7.15 4.78 8.16c.25.42.24.78-.03 1.1-.42.53-1.22.45-1.6-.18l-1.38-2.35-7.57-12.9a1.1 1.1 0 0 1-.16-.81c.1-.46.42-.71.8-.71Zm-3.54 11.84h6.66c.13 0 .27 0 .4.03.45.1.69.48.64 1a.83.83 0 0 1-.79.78h-6.86a1.8 1.8 0 0 1-1.82-1.4 2.4 2.4 0 0 1-.06-.54v-6.13c0-1.17.77-1.93 1.93-1.94h2.13c.67 0 1.05.48.92 1.13-.08.41-.4.67-.84.68h-2.31v6.39Zm16.34 0V20.8H25.5c-.14 0-.28 0-.4-.04-.45-.1-.68-.48-.63-1a.83.83 0 0 1 .79-.77h6.83c.94 0 1.64.53 1.85 1.39.04.18.06.36.06.55v6.12c0 1.17-.77 1.94-1.93 1.94h-1.69c-.68 0-1.07-.54-.89-1.2.1-.37.4-.6.81-.6.54-.02 1.08-.01 1.62-.01h.25Z"/><path d="M28.53 24.9h-.93c-.53-.01-.87-.37-.87-.9 0-.54.34-.9.88-.9h1.87c.54 0 .88.36.88.9s-.34.9-.9.9h-.93Zm-9.09 0h-.93c-.53-.01-.86-.36-.87-.9 0-.53.33-.9.86-.9a30.4 30.4 0 0 1 1.91 0c.53 0 .87.37.86.9 0 .53-.33.88-.85.9h-.98Z"/></g><defs><clipPath id="blackouts"><path fill="#fff" d="M14 15.35h20v17.3H14z"/></clipPath></defs></svg>