<svg xmlns="http://www.w3.org/2000/svg" fill="none" viewBox="0 0 92 24"><path fill="url(#a)" d="M48.4 4.06a7.64 7.64 0 0 0-7.78 7.5c0 4.4 3.34 7.69 7.78 7.69a7.59 7.59 0 1 0 0-15.18Z"/><g filter="url(#b)"><path fill="#fff" d="M48.4 4.06a7.64 7.64 0 0 0-7.78 7.5c0 4.4 3.34 7.69 7.78 7.69a7.59 7.59 0 1 0 0-15.18Z"/></g><path fill="#fff" d="M4.25 4.34H.07v14.58h4.16c2.2 0 3.8-.52 5.2-1.68a7.33 7.33 0 0 0 2.65-5.6c0-4.31-3.22-7.3-7.83-7.3Zm3.33 10.95c-.9.81-2.06 1.16-3.9 1.16h-.76V6.81h.76c1.84 0 2.95.32 3.9 1.18a4.9 4.9 0 0 1 1.57 3.62c0 1.4-.59 2.8-1.57 3.68Zm5.81 3.63h2.84V4.34H13.4v14.58Zm9.8-8.99c-1.7-.63-2.21-1.05-2.21-1.83 0-.92.9-1.62 2.12-1.62.85 0 1.55.35 2.3 1.18l1.48-1.95A6.37 6.37 0 0 0 22.6 4.1c-2.58 0-4.55 1.8-4.55 4.18 0 2.01.92 3.04 3.58 4 1.12.4 1.69.66 1.97.83.57.38.86.9.86 1.51 0 1.18-.94 2.06-2.21 2.06a3.36 3.36 0 0 1-3.1-1.95L17.3 16.5a5.64 5.64 0 0 0 5.05 2.78c2.95 0 5.03-1.97 5.03-4.79 0-2.32-.96-3.37-4.2-4.55Zm5.1 1.7a7.55 7.55 0 0 0 7.7 7.62c1.22 0 2.26-.24 3.56-.85v-3.35c-1.14 1.14-2.15 1.6-3.44 1.6-2.86 0-4.9-2.08-4.9-5.04 0-2.8 2.1-5 4.77-5 1.35 0 2.38.48 3.57 1.64V4.9a7.67 7.67 0 0 0-11.26 6.73Zm34.3 2.5-3.89-9.8h-3.1l6.19 14.96h1.52l6.3-14.95h-3.08l-3.94 9.8Zm8.32 4.79h8.06v-2.47h-5.22v-3.94h5.02v-2.47h-5.02V6.81h5.22V4.34h-8.06v14.58ZM90.23 8.64c0-2.73-1.87-4.3-5.16-4.3h-4.22v14.58h2.85v-5.86h.37L88 18.92h3.5l-4.6-6.14c2.15-.44 3.33-1.9 3.33-4.14Zm-5.7 2.4h-.83v-4.4h.87c1.78 0 2.74.75 2.74 2.16 0 1.47-.96 2.26-2.78 2.26Z"/><defs><linearGradient id="a" x1="342.18" x2="1391.72" y1="141.68" y2="1250.19" gradientUnits="userSpaceOnUse"><stop stop-color="#F34F26"/><stop offset="1" stop-color="#F69E35"/></linearGradient><filter id="b" width="16.07" height="15.72" x="40.62" y="4.06" color-interpolation-filters="sRGB" filterUnits="userSpaceOnUse"><feFlood flood-opacity="0" result="BackgroundImageFix"/><feBlend in="SourceGraphic" in2="BackgroundImageFix" result="shape"/><feColorMatrix in="SourceAlpha" result="hardAlpha" values="0 0 0 0 0 0 0 0 0 0 0 0 0 0 0 0 0 0 127 0"/><feOffset dx=".54" dy=".54"/><feGaussianBlur stdDeviation=".72"/><feComposite in2="hardAlpha" k2="-1" k3="1" operator="arithmetic"/><feColorMatrix values="0 0 0 0 0 0 0 0 0 0 0 0 0 0 0 0 0 0 0.5 0"/><feBlend in2="shape" result="effect1_innerShadow_2165_1155"/></filter></defs></svg>