<svg xmlns="http://www.w3.org/2000/svg" fill="none" viewBox="0 0 61 24"><g clip-path="url(#a)"><path fill="#fff" d="M42.7 6.48a5.5 5.5 0 0 1 3.91 1.35c.98.9 1.43 2.11 1.43 3.62v7.22h-2.1v-1.65h-.08a4.28 4.28 0 0 1-3.7 2.03c-1.27 0-2.4-.38-3.3-1.13a4 4 0 0 1-1.36-2.94c0-1.2.45-2.18 1.36-2.93.9-.76 2.18-1.06 3.69-1.06 1.35 0 2.4.23 3.23.76v-.53c0-.7-.26-1.4-.78-1.86l-.12-.1a3.28 3.28 0 0 0-2.18-.83c-1.28 0-2.26.53-2.94 1.59l-1.96-1.2a5.73 5.73 0 0 1 4.9-2.34ZM32.08 1.36a5.6 5.6 0 0 1 3.66 1.35l.18.15a4.78 4.78 0 0 1 1.58 3.7 4.9 4.9 0 0 1-1.58 3.68 5.47 5.47 0 0 1-3.84 1.5l-3.6-.07v7H26.2V1.36h5.87ZM43 12.8c-.9 0-1.66.23-2.26.68-.6.37-.9.9-.9 1.58 0 .6.3 1.13.75 1.43.53.37 1.13.6 1.73.6.84 0 1.69-.33 2.35-.92l.13-.13a3.18 3.18 0 0 0 1.13-2.41A4.7 4.7 0 0 0 43 12.8M32.23 3.47h-3.76v6.02h3.76c.83 0 1.66-.3 2.19-.9a2.89 2.89 0 0 0 .07-4.14l-.07-.08c-.6-.6-1.36-.98-2.19-.9m28 3.38-7.45 17.09h-2.26l2.79-5.95-4.9-11.06h2.42l3.53 8.5h.08l3.46-8.5h2.33v-.08Z"/><path fill="#4285F4" d="M19.51 10.17c0-.68-.07-1.36-.15-2.04h-9.4v3.84h5.34a4.56 4.56 0 0 1-1.96 3.01v2.49h3.24c1.88-1.73 2.93-4.3 2.93-7.3"/><path fill="#34A853" d="M9.95 19.87c2.71 0 4.97-.9 6.63-2.4l-3.24-2.49a6 6 0 0 1-3.39.98 5.9 5.9 0 0 1-5.57-4.14h-3.3v2.56a9.95 9.95 0 0 0 8.87 5.5Z"/><path fill="#FBBC04" d="M4.38 11.82a5.6 5.6 0 0 1 0-3.84V5.42h-3.3a9.89 9.89 0 0 0 0 8.96l3.3-2.56Z"/><path fill="#EA4335" d="M9.95 3.92a5.6 5.6 0 0 1 3.84 1.5l2.86-2.86A9.52 9.52 0 0 0 10.03 0a9.86 9.86 0 0 0-8.88 5.5l3.31 2.56a5.74 5.74 0 0 1 5.5-4.14Z"/></g><defs><clipPath id="a"><path fill="#fff" d="M0 0h60.23v24H0z"/></clipPath></defs></svg>