<svg xmlns="http://www.w3.org/2000/svg" fill="none" viewBox="0 0 24 24"><g fill="#FF0F0F" clip-path="url(#a)"><path d="M15.37 1.35a8.22 8.22 0 0 0-7.75 7.37c-.02.23-.04 3-.04 7.32v6.94h2.6l2.57-.02.02-7.01.02-7.02.12-.34a3.04 3.04 0 0 1 5.8.13c.08.24.1.37.1.84 0 .49-.02.58-.11.86-.18.52-.4.86-.8 1.27-.31.3-.4.38-.77.56a2.6 2.6 0 0 1-.77.26l-.36.08v5.16l.22-.02A8.22 8.22 0 0 0 22.62 5a8.25 8.25 0 0 0-7.26-3.65ZM2.12 13.86a211.74 211.74 0 0 1-2.24 1.3c.05.05 4.42 2.55 4.43 2.54v-5.1l-2.19 1.26Z"/></g><defs><clipPath id="a"><path fill="#fff" d="M0 0h24v24H0z"/></clipPath></defs></svg>