<svg xmlns="http://www.w3.org/2000/svg" fill="none" viewBox="0 0 100 24"><g fill="#fff" clip-path="url(#a)"><path d="M18.36 6.07c.3-1.87 0-3.14-1.02-4.3-1.1-1.27-3.12-1.8-5.7-1.8H4.18c-.52 0-.97.37-1.05.9L0 20.58c-.06.39.24.74.63.74h4.61l-.31 2.02c-.06.34.2.65.55.65h3.89c.46 0 .85-.34.92-.79l.04-.2.73-4.64.05-.26a.94.94 0 0 1 .92-.79h.58c3.77 0 6.72-1.53 7.58-5.95.36-1.85.17-3.4-.78-4.48a3.7 3.7 0 0 0-1.06-.82Z" opacity=".68"/><path d="M18.36 6.07c.3-1.87 0-3.14-1.02-4.3-1.1-1.27-3.12-1.8-5.7-1.8H4.18c-.52 0-.97.37-1.05.9L0 20.58c-.06.39.24.74.63.74h4.61L6.41 14l-.03.23c.08-.52.52-.9 1.05-.9h2.2c4.3 0 7.67-1.76 8.65-6.81l.08-.44Z" opacity=".7"/><path d="M7.66 6.1a.93.93 0 0 1 .92-.8h5.86a12.21 12.21 0 0 1 2.42.24 7.18 7.18 0 0 1 1.5.53c.3-1.87 0-3.14-1.01-4.3-1.12-1.27-3.13-1.8-5.7-1.8H4.17c-.52 0-.97.37-1.05.9L0 20.58c-.06.39.24.74.63.74h4.61L6.41 14l1.25-7.9Zm68.97-.76H71.2a.76.76 0 0 0-.75.63l-2.2 13.97c-.05.28.16.53.44.53h2.8c.26 0 .48-.2.52-.45l.63-3.96a.76.76 0 0 1 .74-.64h1.73c3.59 0 5.66-1.73 6.2-5.18.24-1.5 0-2.68-.7-3.51-.77-.91-2.14-1.4-3.97-1.4Zm.63 5.1c-.3 1.95-1.79 1.95-3.23 1.95h-.83l.58-3.65a.45.45 0 0 1 .45-.38h.38c.98 0 1.9 0 2.39.56.28.33.37.83.26 1.52Zm-39.48-5.1h-5.45a.76.76 0 0 0-.75.63l-2.2 13.97c-.04.28.17.53.45.53h2.6c.37 0 .69-.27.75-.64l.6-3.77a.76.76 0 0 1 .74-.64h1.72c3.6 0 5.66-1.73 6.2-5.18.25-1.5.01-2.68-.7-3.51-.77-.91-2.14-1.4-3.96-1.4Zm.63 5.1c-.3 1.95-1.8 1.95-3.24 1.95h-.82l.58-3.65a.45.45 0 0 1 .44-.38h.38c.98 0 1.91 0 2.4.56.28.33.36.83.26 1.52Zm15.65-.07h-2.6a.45.45 0 0 0-.46.39l-.11.73-.18-.27c-.57-.82-1.83-1.1-3.09-1.1a6 6 0 0 0-5.82 5.26 4.9 4.9 0 0 0 .97 4c.8.94 1.93 1.33 3.29 1.33 2.32 0 3.61-1.5 3.61-1.5l-.12.73c-.04.28.17.53.45.53h2.35c.37 0 .69-.27.75-.64l1.4-8.93a.45.45 0 0 0-.44-.53Zm-3.64 5.08a2.9 2.9 0 0 1-2.94 2.5 2.2 2.2 0 0 1-1.75-.71 2.22 2.22 0 0 1-.41-1.83 2.92 2.92 0 0 1 2.92-2.51c.74 0 1.35.24 1.74.7.4.48.56 1.13.44 1.85Zm42.5-5.08H90.3a.45.45 0 0 0-.45.39l-.12.73-.18-.27c-.56-.82-1.82-1.1-3.08-1.1a6 6 0 0 0-5.82 5.26 4.9 4.9 0 0 0 .97 4c.8.94 1.93 1.33 3.28 1.33 2.33 0 3.62-1.5 3.62-1.5l-.12.73c-.04.28.17.53.45.53h2.35c.37 0 .69-.27.75-.64l1.4-8.93a.45.45 0 0 0-.44-.53Zm-3.64 5.08a2.9 2.9 0 0 1-2.94 2.5c-.76 0-1.37-.25-1.75-.71a2.22 2.22 0 0 1-.41-1.83 2.92 2.92 0 0 1 2.92-2.51c.74 0 1.34.24 1.74.7.4.48.56 1.13.44 1.85Zm-21.33-5.07h-2.62a.76.76 0 0 0-.62.33l-3.62 5.33-1.53-5.12a.76.76 0 0 0-.73-.54h-2.58c-.3 0-.53.3-.43.6l2.9 8.47L56 23.28c-.22.3 0 .72.37.72h2.62c.24 0 .48-.12.62-.33l8.72-12.58c.2-.3 0-.71-.38-.71ZM96 5.72l-2.24 14.22c-.05.28.17.53.44.53h2.25c.38 0 .7-.27.75-.64l2.2-13.97a.45.45 0 0 0-.44-.52h-2.52a.45.45 0 0 0-.45.38Z"/></g><defs><clipPath id="a"><path fill="#fff" d="M0 0h100v24H0z"/></clipPath></defs></svg>